<?xml version="1.0" standalone="no"?>
<!DOCTYPE svg PUBLIC "-//W3C//DTD SVG 20010904//EN"
 "http://www.w3.org/TR/2001/REC-SVG-20010904/DTD/svg10.dtd">
<svg version="1.0" xmlns="http://www.w3.org/2000/svg"
 width="1000.000000pt" height="1000.000000pt" viewBox="0 0 1000.000000 1000.000000"
 preserveAspectRatio="xMidYMid meet">

<g transform="translate(0.000000,1000.000000) scale(0.100000,-0.100000)"
fill="#fafafa" stroke="none">
<path d="M6242 9841 c-17 -11 -98 -144 -130 -212 -144 -315 -234 -852 -218
-1314 4 -104 10 -208 14 -230 20 -97 -81 -270 -339 -580 -63 -75 -98 -112
-228 -232 -46 -42 -53 -54 -48 -75 9 -34 113 -103 195 -128 70 -22 206 -27
277 -10 22 5 42 6 45 3 10 -10 -146 -148 -198 -175 -28 -15 -73 -30 -99 -34
-104 -15 -111 -48 -25 -124 97 -86 253 -141 342 -121 84 20 86 18 50 -46 -70
-126 -222 -307 -355 -424 -134 -118 -312 -231 -555 -353 -157 -79 -200 -114
-200 -163 0 -44 54 -103 137 -149 l63 -36 -17 -30 c-27 -46 -156 -180 -242
-251 -83 -69 -172 -132 -268 -190 -85 -52 -117 -91 -109 -135 11 -69 60 -101
211 -136 l90 -21 -80 -84 c-109 -114 -355 -297 -517 -384 -100 -54 -107 -59
-123 -93 -30 -64 33 -161 139 -215 45 -22 47 -24 22 -30 -37 -10 -183 -86
-336 -174 -293 -170 -429 -239 -607 -309 -132 -52 -395 -129 -603 -176 -121
-27 -169 -49 -204 -91 -24 -29 -28 -39 -24 -81 3 -26 17 -71 32 -99 14 -28 26
-56 26 -63 0 -17 -133 -60 -260 -84 -200 -38 -238 -43 -600 -72 -145 -12 -211
-32 -250 -77 -45 -51 -47 -116 -5 -215 9 -23 -27 -40 -145 -68 -240 -57 -275
-75 -316 -165 -19 -40 -24 -66 -23 -135 0 -92 3 -111 43 -305 26 -122 28 -144
25 -350 -2 -256 -3 -239 17 -259 25 -26 69 -19 154 24 44 22 88 40 98 40 25 0
46 -24 136 -158 160 -237 279 -364 389 -412 41 -18 51 -19 75 -8 24 12 27 19
27 61 0 26 1 47 2 47 2 0 31 -23 65 -51 221 -179 488 -312 758 -379 41 -10
127 -32 190 -48 146 -38 301 -61 460 -69 190 -8 216 14 145 120 l-35 52 28 27
c15 15 78 52 141 83 63 31 147 81 187 111 82 62 184 168 220 230 53 91 78 209
54 254 -21 39 -50 45 -232 50 -97 3 -179 8 -183 11 -3 4 1 40 10 80 19 95 19
122 -3 149 -31 38 -96 37 -457 -11 -92 -12 -350 -17 -360 -7 -4 4 5 31 19 62
34 73 34 106 -4 146 -27 29 -35 32 -73 28 -23 -3 -96 -27 -162 -53 -204 -81
-350 -111 -480 -99 -167 16 -227 61 -290 218 -36 91 -14 118 195 243 152 91
240 134 258 124 9 -4 24 -6 32 -3 16 5 191 77 225 92 11 5 65 28 120 51 302
125 572 293 850 528 33 28 63 51 68 51 4 0 7 -67 7 -149 l0 -149 -60 -61
c-129 -128 -176 -337 -99 -435 34 -43 82 -57 194 -58 114 0 154 0 315 -2 63 0
158 3 210 7 52 5 114 8 137 7 128 -3 242 139 230 285 -7 87 -42 173 -89 218
l-40 38 73 107 c39 59 73 108 75 110 1 2 20 -14 42 -35 71 -69 135 -96 235
-101 l87 -4 0 -125 c0 -118 -1 -127 -31 -186 -33 -68 -66 -110 -159 -207 -100
-105 -120 -136 -120 -189 0 -76 46 -127 140 -155 61 -18 109 -20 160 -7 19 6
173 12 342 15 281 5 311 7 347 25 120 62 121 177 3 295 l-47 47 -12 -30 c-11
-26 -16 -29 -35 -22 -13 4 -27 17 -33 27 -5 11 -29 50 -52 86 -34 54 -43 77
-43 112 0 61 52 353 83 471 9 33 30 125 48 205 51 236 56 257 103 435 90 344
148 536 282 930 177 524 232 664 262 673 34 10 3 -101 -143 -503 -93 -258
-229 -684 -275 -860 -4 -16 -18 -66 -30 -110 -71 -257 -183 -743 -175 -753 2
-2 43 17 92 42 142 74 351 246 448 371 119 152 157 229 236 468 22 67 67 194
99 282 32 88 61 172 64 187 4 16 11 28 18 28 12 0 5 -78 -11 -107 -5 -10 -17
-45 -26 -78 -27 -96 -75 -257 -90 -300 -14 -42 -45 -212 -45 -252 0 -13 -4
-23 -10 -23 -5 0 -19 -19 -31 -43 -63 -123 -183 -260 -334 -381 -111 -90 -234
-175 -300 -211 -56 -29 -50 -13 -95 -260 -24 -132 -32 -331 -12 -327 7 1 12
-8 12 -22 0 -21 8 -25 73 -39 223 -50 499 -63 695 -31 256 41 352 111 327 241
-15 79 -170 188 -327 228 -38 10 -68 19 -68 20 0 5 41 161 63 240 57 202 72
361 58 645 -4 83 -3 89 58 263 73 211 128 353 150 386 l16 25 7 -40 c21 -111
39 -301 48 -489 10 -233 19 -272 87 -394 l37 -66 1 -125 c1 -124 1 -126 39
-202 21 -42 52 -94 70 -115 52 -60 106 -146 106 -166 0 -34 60 -201 87 -242
37 -56 121 -143 165 -171 60 -38 153 -54 321 -54 267 0 408 39 511 143 71 71
93 137 76 224 -17 80 -42 132 -86 176 -59 59 -114 80 -209 79 -95 0 -204 -35
-330 -107 -43 -25 -82 -45 -86 -45 -3 0 -9 10 -12 23 -3 12 -12 47 -20 77
-107 393 -166 684 -212 1030 -8 63 -17 126 -20 140 -11 57 -35 506 -35 663 0
194 12 329 41 442 23 90 62 208 91 275 11 25 26 61 34 80 8 19 20 43 25 53 12
22 15 90 4 106 -3 6 -28 22 -55 36 -26 13 -55 31 -64 40 -15 15 -13 20 23 63
21 26 44 57 50 70 13 24 11 29 -42 124 -102 178 -106 383 -12 543 32 56 91 80
195 80 86 -1 170 -20 325 -78 91 -33 122 -40 181 -40 81 1 148 28 166 68 15
33 -11 62 -61 71 -41 8 -111 40 -111 52 0 4 42 13 93 20 124 15 225 50 382
129 215 109 281 161 273 215 -2 18 -13 24 -58 33 -30 6 -64 16 -76 23 -34 18
-74 85 -74 123 0 31 17 52 174 214 95 99 172 185 169 191 -2 6 -16 17 -31 25
-58 29 -83 52 -115 107 -61 106 -96 198 -112 296 -13 85 -13 108 0 207 23 174
55 260 155 410 87 129 104 167 92 195 -6 12 -20 25 -31 29 -21 6 -28 21 -13
27 5 2 25 25 45 51 47 62 51 113 10 123 -17 5 -46 1 -76 -10 -27 -10 -51 -15
-54 -12 -4 3 17 77 45 163 76 234 94 310 112 483 11 112 13 260 2 277 -8 12
-24 16 -58 14 -25 -1 -119 -82 -194 -167 -108 -121 -402 -566 -459 -695 l-18
-39 -24 19 c-123 97 -328 151 -569 151 -188 0 -268 -18 -429 -96 -62 -30 -114
-54 -116 -52 -2 2 -25 53 -51 113 -82 190 -223 462 -347 670 -65 110 -128 210
-139 222 -22 23 -50 34 -66 24z m2372 -417 c-1 -33 -37 -154 -107 -364 -58
-173 -109 -324 -113 -334 -8 -21 -11 -21 59 8 l37 16 0 -29 c0 -22 -6 -31 -30
-41 -80 -33 -105 -63 -145 -171 -33 -92 -37 -110 -33 -173 3 -46 13 -86 27
-114 12 -24 20 -51 17 -59 -10 -26 -32 2 -66 84 -42 101 -44 190 -5 277 15 33
32 76 39 95 73 202 85 236 199 566 19 55 45 134 57 175 29 102 38 122 53 117
7 -2 11 -22 11 -53z m-2174 -406 c28 -87 55 -160 60 -163 6 -4 10 -15 10 -26
0 -11 23 -73 50 -139 28 -66 50 -127 50 -136 0 -9 -9 -18 -20 -21 -15 -4 -38
-40 -76 -119 -31 -63 -59 -114 -64 -114 -4 0 -19 13 -32 28 -13 16 -46 37 -74
47 -27 9 -74 27 -104 38 -107 40 -112 85 -12 112 31 9 75 20 96 26 22 6 35 14
30 17 -13 9 -74 88 -74 96 0 4 -22 46 -50 95 -49 87 -60 124 -40 136 5 3 60
-1 121 -10 62 -8 114 -13 117 -10 3 3 -9 49 -26 102 -54 168 -59 193 -42 203
8 5 18 6 22 2 4 -4 30 -78 58 -164z m850 -1054 c93 -51 143 -147 143 -279 1
-108 -25 -195 -83 -283 -53 -79 -69 -92 -127 -99 -113 -13 -236 90 -286 241
-43 127 -1 287 98 374 84 74 174 90 255 46z m845 -56 c14 -6 36 -28 48 -47 19
-31 22 -49 21 -131 -2 -204 -116 -473 -211 -496 -45 -12 -123 86 -149 188 -22
86 -15 241 15 319 51 133 179 211 276 167z m-400 -603 c35 -18 40 -24 37 -50
-6 -56 -65 -128 -140 -171 -32 -18 -38 -27 -44 -69 -8 -57 2 -88 36 -111 55
-35 107 10 116 99 6 57 28 80 55 57 14 -12 16 -25 12 -68 -6 -60 -39 -111 -91
-143 -41 -25 -66 -24 -106 4 -28 18 -39 31 -57 66 -1 1 -17 -9 -36 -23 -75
-58 -168 -70 -262 -35 -64 24 -105 56 -136 105 -18 30 -20 40 -10 60 16 36 61
30 79 -11 41 -96 73 -119 167 -118 95 1 153 41 181 126 l17 51 -25 20 c-14 12
-42 34 -62 49 -41 32 -96 102 -96 123 0 17 49 43 103 54 72 15 217 7 262 -15z
m-1315 -1585 c0 -97 -68 -351 -130 -487 -56 -121 -157 -273 -182 -273 -18 0
-5 38 56 169 85 181 154 358 201 513 38 127 55 151 55 78z m-1084 -537 c-3
-27 -22 -97 -42 -158 -99 -304 -258 -1023 -338 -1525 -42 -262 -76 -590 -77
-746 -1 -153 -10 -208 -32 -212 -10 -2 -27 4 -38 14 -24 22 -25 108 -4 366 35
411 104 839 221 1358 103 456 145 609 221 805 47 120 61 145 80 145 13 0 15
-8 9 -47z m-1146 -1289 c0 -16 -34 -63 -139 -189 -65 -77 -137 -167 -162 -200
-111 -147 -262 -430 -309 -580 -39 -126 -46 -140 -63 -143 -24 -5 -23 49 3
158 52 218 171 441 378 705 94 121 142 168 195 194 24 12 52 30 62 41 17 19
35 26 35 14z m455 -123 c8 -25 22 -99 31 -163 12 -96 13 -137 4 -220 -23 -213
-73 -385 -166 -569 -39 -79 -50 -109 -41 -118 6 -6 7 -11 1 -11 -10 0 -64 47
-64 56 0 2 12 28 26 57 135 265 193 503 181 734 -3 60 -13 133 -22 163 -9 30
-19 84 -21 120 l-5 65 30 -34 c17 -19 37 -55 46 -80z m3139 -1307 c106 -52
166 -137 166 -236 0 -48 -16 -50 -24 -3 -15 81 -80 145 -179 179 -60 20 -178
21 -243 1 -82 -25 -87 -16 -16 32 103 70 191 78 296 27z m-4053 -24 l40 -32
49 21 c80 35 150 24 208 -31 32 -32 34 -32 48 -14 23 32 67 56 102 56 34 0 35
-1 26 -49 -6 -29 -9 -31 -49 -31 -31 0 -47 -6 -65 -25 -29 -31 -43 -31 -69 -3
-60 63 -114 73 -200 33 l-54 -25 -43 40 c-39 36 -49 40 -94 40 -41 0 -56 -5
-75 -25 -14 -13 -25 -33 -25 -45 0 -11 -4 -20 -10 -20 -16 0 -12 49 7 92 20
44 53 59 121 54 30 -3 55 -13 83 -36z m2509 -141 c63 -39 111 -112 114 -173 2
-56 -28 -44 -70 29 -31 53 -51 74 -96 101 -32 20 -58 42 -58 50 0 22 69 17
110 -7z m-258 -39 c62 -39 108 -110 108 -168 0 -39 -2 -43 -22 -40 -16 2 -24
12 -29 36 -9 44 -56 101 -105 129 -58 32 -67 42 -53 59 18 22 49 17 101 -16z
m-2308 -50 c-1 -19 -5 -54 -9 -77 -5 -28 -4 -48 4 -56 6 -8 8 -17 4 -20 -11
-11 -58 -8 -71 5 -14 14 -16 71 -2 117 21 73 76 96 74 31z m435 6 c7 -8 15
-30 18 -50 5 -30 1 -40 -25 -66 -41 -41 -64 -41 -52 1 5 17 7 43 4 59 -11 51
27 90 55 56z m1063 -125 c14 -11 40 -50 58 -88 28 -55 35 -83 38 -148 4 -68 1
-84 -15 -104 l-20 -24 -21 21 c-15 15 -22 38 -26 89 -8 82 -32 169 -57 205
-41 57 -10 91 43 49z m-216 -37 c4 -14 3 -51 -1 -82 -4 -32 -10 -89 -14 -129
-7 -85 -21 -86 -45 -4 -21 73 -21 169 1 201 32 47 50 51 59 14z"/>
<path d="M6240 8845 c0 -18 119 -205 152 -239 39 -40 48 -69 26 -83 -7 -4 -44
-17 -81 -28 -77 -24 -78 -22 41 -69 l63 -25 25 42 c14 23 39 61 56 84 16 24
26 48 23 53 -4 6 -24 61 -46 122 -22 62 -45 118 -52 124 -13 13 -207 30 -207
19z"/>
<path d="M7490 7279 c-30 -5 -59 -14 -64 -19 -14 -14 54 -81 116 -115 44 -24
52 -26 79 -14 32 13 71 58 88 100 8 23 6 28 -16 38 -37 17 -138 22 -203 10z"/>
</g>
</svg>
