<svg fill="none" height="96" viewBox="0 0 96 96" width="96" xmlns="http://www.w3.org/2000/svg" xmlns:xlink="http://www.w3.org/1999/xlink"><linearGradient id="a" gradientUnits="userSpaceOnUse" x1="87.8899" x2="90.6899" y1="36.12" y2="60.56"><stop offset=".16" stop-color="#21d789"/><stop offset=".54" stop-color="#419fbc"/><stop offset="1" stop-color="#6b57ff"/></linearGradient><linearGradient id="b" gradientUnits="userSpaceOnUse" x1="62.3499" x2="69.4499" y1="25.62" y2="7.46001"><stop offset="0" stop-color="#6b57ff"/><stop offset=".95" stop-color="#21d789"/></linearGradient><linearGradient id="c" gradientUnits="userSpaceOnUse" x1="23.1201" x2="30.0201" y1="48.47" y2="78.51"><stop offset="0" stop-color="#6b57ff"/><stop offset=".02" stop-color="#685bfa"/><stop offset=".28" stop-color="#4990c9"/><stop offset=".51" stop-color="#33b6a6"/><stop offset=".69" stop-color="#25ce90"/><stop offset=".8" stop-color="#21d789"/></linearGradient><linearGradient id="d" gradientUnits="userSpaceOnUse" x1="5.98" x2="90.1" y1="48.01" y2="94.46"><stop offset=".08" stop-color="#21d789"/><stop offset=".89" stop-color="#6b57ff"/></linearGradient><linearGradient id="e" gradientUnits="userSpaceOnUse" x1="6.49" x2="91.04" y1="36.81" y2="36.81"><stop offset=".31" stop-color="#21d789"/><stop offset=".49" stop-color="#58a2b1"/><stop offset=".77" stop-color="#b74af7"/><stop offset="1" stop-color="#ff45ed"/></linearGradient><path d="m89.8799 14.92 6.12 39.3-11.31 6.58z" fill="url(#a)"/><path d="m89.8799 14.92-34.37-14.92-9.59 7.95999z" fill="url(#b)"/><path d="m64.8701 96-53.33-42.5-10.710022 32.22z" fill="url(#c)"/><path d="m72.3 69.15-72.3-24.84 64.87 51.69z" fill="url(#d)"/><path d="m0 .679993v43.630007l83.31 28.63 6.57-58.02z" fill="url(#e)"/><path d="m78 18h-60v60h60z" fill="#000"/><path d="m26 70h24v-4h-24zm34.58-33.95v3.38h5.23c-.1.86-.4 1.65-.9 2.35-.59.82-1.39 1.46-2.39 1.93s-2.13.7-3.38.7c-1.33 0-2.54-.33-3.62-1s-1.92-1.58-2.54-2.75c-.61-1.17-.92-2.49-.92-3.96s.31-2.79.92-3.96 1.46-2.08 2.54-2.75 2.28-1 3.62-1c.91 0 1.75.14 2.54.42s1.47.69 2.06 1.21 1.06 1.14 1.4 1.86h4.58c-.41-1.45-1.11-2.73-2.12-3.84s-2.24-1.97-3.7-2.59-3.06-.93-4.78-.93c-2.13 0-4.07.5-5.81 1.51s-3.1 2.39-4.1 4.16c-.99 1.77-1.49 3.74-1.49 5.91s.5 4.15 1.49 5.91c.99 1.77 2.36 3.15 4.1 4.16s3.67 1.51 5.81 1.51 3.9-.46 5.56-1.37 2.96-2.17 3.91-3.76 1.42-3.37 1.42-5.34v-1.76h-9.42zm-20.18 10.4c1.68-.96 2.99-2.29 3.94-3.99.94-1.7 1.42-3.62 1.42-5.77s-.47-4.07-1.42-5.77c-.94-1.7-2.26-3.03-3.94-3.99s-3.58-1.44-5.69-1.44h-8.51v22.4h8.51c2.11 0 4.01-.48 5.69-1.44zm-9.93-2.26v-15.01h4.19c1.34 0 2.52.3 3.54.91 1.01.61 1.79 1.47 2.34 2.6s.82 2.46.82 3.99-.27 2.87-.82 3.99c-.55 1.13-1.33 1.99-2.34 2.6s-2.19.91-3.54.91h-4.19z" fill="#fff"/></svg>