<svg fill="none" height="96" viewBox="0 0 96 96" width="96" xmlns="http://www.w3.org/2000/svg" xmlns:xlink="http://www.w3.org/1999/xlink"><linearGradient id="a" gradientUnits="userSpaceOnUse" x1="34.2802" x2="91.4102" y1="37.09" y2="37.09"><stop offset="0" stop-color="#21d789"/><stop offset="1" stop-color="#07c3f2"/></linearGradient><linearGradient id="b" gradientUnits="userSpaceOnUse" x1="-33.68" x2="83.9601" y1="81.0201" y2="-5.81991"><stop offset=".01" stop-color="#fcf84a"/><stop offset=".11" stop-color="#a7eb62"/><stop offset=".21" stop-color="#5fe077"/><stop offset=".27" stop-color="#32d984"/><stop offset=".31" stop-color="#21d789"/><stop offset=".58" stop-color="#21d789"/><stop offset=".6" stop-color="#21d789"/><stop offset=".69" stop-color="#20d68c"/><stop offset=".76" stop-color="#1dd496"/><stop offset=".83" stop-color="#19d0a8"/><stop offset=".9" stop-color="#12ccc1"/><stop offset=".97" stop-color="#0bc6e1"/><stop offset="1" stop-color="#07c3f2"/></linearGradient><linearGradient id="c" gradientUnits="userSpaceOnUse" x1="12.8" x2="32.42" y1="106.5" y2="44.93"><stop offset="0" stop-color="#21d789"/><stop offset=".16" stop-color="#24d788"/><stop offset=".3" stop-color="#2ed984"/><stop offset=".43" stop-color="#40db7f"/><stop offset=".55" stop-color="#59df78"/><stop offset=".67" stop-color="#79e46f"/><stop offset=".79" stop-color="#a1ea64"/><stop offset=".9" stop-color="#cff156"/><stop offset="1" stop-color="#fcf84a"/></linearGradient><linearGradient id="d" gradientUnits="userSpaceOnUse" x1="38.7798" x2="81.4698" y1="52.97" y2="-4.43998"><stop offset="0" stop-color="#21d789"/><stop offset=".09" stop-color="#23d885"/><stop offset=".17" stop-color="#2add7b"/><stop offset=".25" stop-color="#36e669"/><stop offset=".27" stop-color="#3bea62"/><stop offset=".35" stop-color="#46ea60"/><stop offset=".49" stop-color="#66ed5c"/><stop offset=".69" stop-color="#9af056"/><stop offset=".92" stop-color="#e0f54d"/><stop offset="1" stop-color="#fcf84a"/></linearGradient><linearGradient id="e" gradientUnits="userSpaceOnUse" x1="104.08" x2="18.05" y1="60.2701" y2="59.4801"><stop offset=".39" stop-color="#fcf84a"/><stop offset=".46" stop-color="#ebf64c"/><stop offset=".61" stop-color="#c1f351"/><stop offset=".82" stop-color="#7dee59"/><stop offset="1" stop-color="#3bea62"/></linearGradient><path d="m67.3102 15.1499 28.05 23.3301-10.1 20.55-16.91-4.6799h-14.63z" fill="url(#a)"/><path d="m39.05 30.3-5.43 28.73-.52 9.77-13.69 5.93-19.41 2.0901 5.89-62.0801 35.17-14.74 21.67 14.22z" fill="url(#b)"/><path d="m39.05 30.3 2.64 55.3599-8.77 10.3401-32.92-19.1799 27.03-40.2801z" fill="url(#c)"/><path d="m75.2698 26.26h-33.26l29.39-26.26z" fill="url(#d)"/><path d="m96 85.8899-29.29 9.9402-38.98-10.99 11.32-54.5401 4.52-4.04 23.74-2.22-2.15 23.8301 18.88-7.3201z" fill="url(#e)"/><path d="m78 18h-60v60h60z" fill="#000"/><path d="m26 70h24v-4h-24zm4.48-30.6299h5.2c1.59 0 2.98-.2901 4.18-.8701s2.13-1.4 2.78-2.46c.66-1.06.98-2.2801.98-3.6601s-.32-2.5699-.97-3.6199c-.65-1.04-1.56-1.8499-2.74-2.4199s-2.56-.8601-4.11-.8601h-9.6v22.3999h4.27v-8.5098zm0-10.3201h5.04c.75 0 1.4.14 1.96.41s.99.6599 1.29 1.1699.45 1.1.45 1.78-.15 1.2801-.45 1.7901-.73.9099-1.29 1.1799-1.21.4201-1.96.4201h-5.04zm30.96 13.42c-.6.61-1.32 1.0899-2.16 1.4199s-1.76.5-2.75.5c-1.33 0-2.54-.33-3.62-1s-1.92-1.58-2.54-2.75-.92-2.49-.92-3.96.31-2.7899.92-3.9599 1.46-2.08 2.54-2.75 2.28-1 3.62-1c.99 0 1.91.17 2.75.5s1.56.8099 2.16 1.4199 1.04 1.3402 1.34 2.1702h4.5c-.35-1.57-1.03-2.9502-2.03-4.1602s-2.26-2.1398-3.77-2.8098-3.17-1-4.98-1c-2.13 0-4.07.5-5.81 1.51s-3.1 2.3999-4.1 4.1599c-.99 1.77-1.49 3.7399-1.49 5.9099s.5 4.1502 1.49 5.9102c.99 1.77 2.36 3.1499 4.1 4.1599s3.67 1.51 5.81 1.51c1.81 0 3.47-.33 4.98-1s2.76-1.6001 3.77-2.8101 1.68-2.5899 2.03-4.1599h-4.5c-.3.83-.75 1.55-1.34 2.17z" fill="#fff"/></svg>