<svg fill="none" height="96" viewBox="0 0 96 96" width="96" xmlns="http://www.w3.org/2000/svg" xmlns:xlink="http://www.w3.org/1999/xlink"><linearGradient id="a" gradientUnits="userSpaceOnUse" x1="35.59" x2="22.25" y1="78.5901" y2="33.7001"><stop offset="0" stop-color="#087cfa"/><stop offset="1" stop-color="#6b57ff"/></linearGradient><linearGradient id="b" gradientUnits="userSpaceOnUse" x1="37.9599" x2="66.8499" y1="60.7" y2="12.7"><stop offset="0" stop-color="#087cfa"/><stop offset="1" stop-color="#3bea62"/></linearGradient><path d="m45.38 34.4801-40.61-9.92-4.77 11.28 14.63 46.81 38.89 13.34-8.15-61.52z" fill="url(#a)"/><path d="m95.9999 27.47-9.76-19.10999-49.79-8.3500002-21.82 82.6499902 38.89 13.34 2.09-3.42 40.4-65.12z" fill="url(#b)"/><path d="m78 18h-60v60h60z" fill="#000"/><path d="m25.9998 70h24v-4h-24zm34.67-44.51h-4.62l-8.08 22.4h4.38l1.71-5.25h8.78l1.84 5.25h4.3l-8.32-22.4zm-5.57 13.84 2.88-8.66.34-1.41.34 1.41 3.07 8.66h-6.62zm-24.51 7.43c1.22.71 2.55 1.15 3.97 1.36v.29c0 .93.2 1.74.59 2.43s.95 1.23 1.67 1.6c.73.37 1.57.56 2.53.56h3.55v-3.17h-2.72c-.34 0-.63-.06-.87-.19s-.42-.31-.55-.55-.19-.53-.19-.87v-.15c1.32-.23 2.56-.65 3.7-1.31 1.74-1.01 3.1-2.39 4.1-4.16.99-1.77 1.49-3.74 1.49-5.91s-.5-4.15-1.49-5.91c-.99-1.77-2.36-3.15-4.1-4.16s-3.69-1.51-5.84-1.51-4.08.5-5.82 1.51-3.11 2.39-4.1 4.16c-1 1.77-1.5 3.74-1.5 5.91s.5 4.15 1.5 5.91c1 1.77 2.37 3.15 4.1 4.16zm-.3-14.09c.61-1.19 1.46-2.13 2.53-2.8s2.27-1.01 3.61-1.01 2.54.34 3.61 1.01 1.91 1.61 2.51 2.8.9 2.53.9 4.02-.3 2.82-.9 4.02c-.6 1.19-1.44 2.13-2.51 2.8s-2.27 1.01-3.61 1.01-2.54-.34-3.61-1.01-1.91-1.61-2.53-2.8c-.61-1.19-.92-2.53-.92-4.02s.31-2.82.92-4.02z" fill="#fff"/></svg>