<svg fill="none" height="96" viewBox="0 0 96 96" width="96" xmlns="http://www.w3.org/2000/svg" xmlns:xlink="http://www.w3.org/1999/xlink"><linearGradient id="a"><stop offset="0" stop-color="#af1df5"/><stop offset=".21" stop-color="#bb20e4"/><stop offset=".63" stop-color="#dd28b8"/><stop offset="1" stop-color="#ff318c"/></linearGradient><linearGradient id="b" gradientUnits="userSpaceOnUse" x1="17.6998" x2="44.8099" xlink:href="#a" y1="55.3501" y2="3.30002"/><linearGradient id="c" gradientUnits="userSpaceOnUse" x1="9.92" x2="42.78" y1="71.28" y2="27.88"><stop offset=".02" stop-color="#6b57ff"/><stop offset=".42" stop-color="#b74af7"/><stop offset=".75" stop-color="#ff318c"/></linearGradient><linearGradient id="d" gradientUnits="userSpaceOnUse" x1="84.26" x2="66.0499" y1="59.5601" y2="16.35"><stop offset="0" stop-color="#293896"/><stop offset=".08" stop-color="#3a3aa2"/><stop offset=".29" stop-color="#663fc0"/><stop offset=".49" stop-color="#8944d8"/><stop offset=".68" stop-color="#a247e9"/><stop offset=".86" stop-color="#b149f3"/><stop offset="1" stop-color="#b74af7"/></linearGradient><linearGradient id="e" gradientUnits="userSpaceOnUse" x1="69.3398" x2="39.0698" y1="85.07" y2="40.7"><stop offset=".02" stop-color="#6b57ff"/><stop offset=".78" stop-color="#b74af7"/></linearGradient><linearGradient id="f" gradientUnits="userSpaceOnUse" x1="60.1698" x2="50.1397" y1="61.2502" y2="8.20998"><stop offset=".02" stop-color="#6b57ff"/><stop offset=".64" stop-color="#b74af7"/></linearGradient><linearGradient id="g" gradientUnits="userSpaceOnUse" x1="10.92" x2="26.5401" xlink:href="#a" y1="38.2201" y2="9.87007"/><path d="m52.9898 16.8799-3.2-9.67995-14.86 7.17995-19.67 1.7402 2.7 33.75 27.9-4.6701z" fill="url(#b)"/><path d="m26.48 25.49-26.48-6.96 9.15 54.96 49.31-.48z" fill="url(#c)"/><path d="m62.9 48.8999-11.38-19.48 12.34-11.1799 19.65-8.04 12.49 31.04-17.99 17.8701z" fill="url(#d)"/><path d="m78.0198 40.8301-6.25-12.76-49.01 9.8498 5.03 46.8001 32.36 11.28 35.85-21.46z" fill="url(#e)"/><path d="m52.6698 43.1201-29.91-5.2002 36.51-32.21995 24.24 4.50005-15.02 14.9799 3.47 3.0901z" fill="url(#f)"/><path d="m49.79 7.19995-33.41-7.19995-16.38 18.53 26.53 7.0501z" fill="url(#g)"/><path d="m78 18h-60v60h60z" fill="#000"/><path d="m26 70h24v-4h-24zm4.48-30.6201h5.2c1.59 0 2.98-.2899 4.18-.8699s2.13-1.4 2.78-2.46c.66-1.06.98-2.2801.98-3.6601s-.32-2.5699-.97-3.6199c-.65-1.04-1.56-1.8499-2.74-2.4199s-2.56-.8601-4.11-.8601h-9.6v22.3999h4.27v-8.51zm0-10.3198h5.04c.75 0 1.4.1399 1.96.4099s.99.6599 1.29 1.1699.45 1.1.45 1.78-.15 1.2801-.45 1.7901-.73.9099-1.29 1.1799-1.21.4202-1.96.4202h-5.04zm30.5 9.3398c-.48-.91-1.15-1.6698-2.01-2.2998-.86-.62-1.84-1.05-2.94-1.29l-3.79-.8301c-.71-.18-1.28-.4799-1.69-.8899s-.62-.9301-.62-1.5601c0-.55.15-1.0399.44-1.4599s.71-.75 1.24-.98 1.14-.3401 1.82-.3401 1.32.1201 1.86.3601c.53.24.95.5798 1.24 1.0198s.44.94.44 1.5h4.27c-.01-1.27-.35-2.3999-1.02-3.3799-.67-.99-1.59-1.7601-2.78-2.3101-1.18-.55-2.54-.8298-4.06-.8298s-2.83.2899-4.01.8599-2.1 1.3601-2.76 2.3701-.99 2.1499-.99 3.4299c0 1.05.22 1.9901.66 2.8301s1.05 1.5499 1.85 2.1199c.79.57 1.72.9699 2.78 1.2099l3.94.8802c.78.18 1.39.5099 1.83.9899s.66 1.0801.66 1.8101c0 .6-.16 1.1298-.48 1.5798-.32.46-.77.8101-1.35 1.0601s-1.26.3799-2.04.3799-1.5-.1399-2.12-.4199-1.11-.67-1.45-1.17-.52-1.08-.53-1.74h-4.27c.01 1.38.37 2.5899 1.07 3.6399s1.68 1.87 2.94 2.46c1.25.59 2.69.8801 4.31.8801s3.04-.3001 4.3-.9001c1.25-.6 2.23-1.42 2.93-2.46.7-1.05 1.05-2.22 1.05-3.54 0-1.08-.24-2.07-.72-2.98z" fill="#fff"/></svg>