<svg fill="none" height="96" viewBox="0 0 96 96" width="96" xmlns="http://www.w3.org/2000/svg" xmlns:xlink="http://www.w3.org/1999/xlink"><linearGradient id="a"><stop offset="0" stop-color="#21d789"/><stop offset="1" stop-color="#fdb60d"/></linearGradient><linearGradient id="b" gradientUnits="userSpaceOnUse" x1="80.9298" x2="-114.67" xlink:href="#a" y1="16.16" y2="211.76"/><linearGradient id="c" gradientUnits="userSpaceOnUse" x1="89.3799" x2="36.2897" xlink:href="#a" y1="10.8198" y2="87.1199"/><linearGradient id="d" gradientUnits="userSpaceOnUse" x1="45.55" x2="21.35" y1="5.3" y2="81.88"><stop offset="0" stop-color="#dd1265"/><stop offset="1" stop-color="#fdb60d"/></linearGradient><path d="m65.9998 0 28 20-49.4 64.5698-22.09 11.4302-20.66996-32.8301z" fill="url(#b)"/><path d="m95.9999 58-25.37-15.1201-63.25002 29.0801 15.13002 24.04z" fill="url(#c)"/><path d="m20 0 51.44 12.7998-48.93 83.2002-22.51-36z" fill="url(#d)"/><path d="m78 18h-60v60h60z" fill="#000"/><path d="m26 70h24v-4h-24zm33.54-31.0698c.38-.12.75-.2604 1.1-.4204 1.2-.58 2.13-1.4 2.78-2.46.66-1.06.98-2.2797.98-3.6597s-.32-2.5701-.97-3.6201c-.65-1.04-1.56-1.8499-2.74-2.4199s-2.56-.8599-4.11-.8599h-9.6v22.3999h4.27v-8.5102h3.87l4.87 8.5102h4.9l-5.34-8.9599zm-1.29-3.5401c-.56.28-1.21.42-1.96.42h-5.04v-6.75h5.04c.75 0 1.4.1401 1.96.4101s.99.6599 1.29 1.1699.45 1.0998.45 1.7798-.15 1.2903-.45 1.8003-.73.8997-1.29 1.1797zm-27.78 3.98h3.87l4.87 8.5098h4.9l-5.34-8.96c.38-.12.75-.2599 1.1-.4199 1.2-.58 2.13-1.4 2.78-2.46.66-1.06.98-2.2801.98-3.6601s-.32-2.5701-.97-3.6201c-.65-1.04-1.56-1.85-2.74-2.42s-2.56-.8598-4.11-.8598h-9.6v22.3999h4.27v-8.5098zm0-10.3203h5.04c.75 0 1.4.1402 1.96.4102s.99.6599 1.29 1.1699.45 1.1003.45 1.7803-.15 1.2898-.45 1.7998-.73.9001-1.29 1.1801-1.21.42-1.96.42h-5.04v-6.75z" fill="#fff"/></svg>