<svg fill="none" height="96" viewBox="0 0 96 96" width="96" xmlns="http://www.w3.org/2000/svg" xmlns:xlink="http://www.w3.org/1999/xlink"><linearGradient id="a"><stop offset=".28" stop-color="#07c3f2"/><stop offset=".94" stop-color="#087cfa"/></linearGradient><linearGradient id="b" gradientUnits="userSpaceOnUse" x1="34.38" x2="59.2201" xlink:href="#a" y1="1.99988" y2="91.44"/><linearGradient id="c" gradientUnits="userSpaceOnUse" x1="42.1302" x2="84.1602" y1="13.35" y2="74.98"><stop offset=".14" stop-color="#fcf84a"/><stop offset=".37" stop-color="#07c3f2"/></linearGradient><linearGradient id="d" gradientUnits="userSpaceOnUse" x1="83.77" x2="89.2899" xlink:href="#a" y1="20.9701" y2="40.52"/><path d="m12.94 86.7598-12.94-76.6997 23.93-9.930217 15.28 9.080077 14-7.56006 29.17 11.21-16.37 83.1401z" fill="url(#b)"/><path d="m96.0002 32.5098-12.38-30.6099-22.49-1.8999-34.7 33.3398 9.34 42.9703 17.44 12.2299 42.79-25.3901-10.5-19.6899z" fill="url(#c)"/><path d="m76.77 27.9399 8.73 15.5201 10.5-10.9502-7.71-19.0596z" fill="url(#d)"/><path d="m78 18h-60v60h60z" fill="#000"/><path d="m25.9997 70h24v-4h-24zm20.11-27.46-4.98-17.06h-4.61l-4.86 17.06-5.06-17.06h-4.42l6.82 22.3999h4.8l4.98-17.0401 4.91 17.0401h4.83l6.8-22.3999h-4.34l-4.88 17.06zm25.77-4.1401c-.48-.91-1.15-1.6698-2.01-2.2998s-1.84-1.05-2.94-1.29l-3.79-.8301c-.71-.18-1.28-.4802-1.69-.8902s-.62-.93-.62-1.56c0-.55.15-1.04.44-1.46s.71-.75 1.24-.98 1.14-.3398 1.82-.3398 1.32.1199 1.86.3599c.53.24.95.58 1.24 1.02s.44.94.44 1.5h4.27c-.01-1.27-.35-2.3999-1.02-3.3799-.67-.99-1.59-1.7601-2.78-2.3101s-2.54-.83-4.06-.83-2.83.2903-4.01.8603-2.1 1.3596-2.76 2.3696-.99 2.1502-.99 3.4302c0 1.05.22 1.9901.66 2.8301s1.05 1.5501 1.85 2.1201 1.72.97 2.78 1.21l3.94.8799c.78.18 1.39.5097 1.83.9897s.66 1.0801.66 1.8101c0 .6-.16 1.13-.48 1.58-.32.46-.77.8101-1.35 1.0601s-1.26.3799-2.04.3799-1.5-.1399-2.12-.4199-1.11-.67-1.45-1.17-.52-1.0802-.53-1.7402h-4.27c0 1.38.37 2.5901 1.07 3.6401s1.68 1.87 2.94 2.46c1.25.59 2.69.8799 4.31.8799s3.04-.2999 4.3-.8999c1.25-.6 2.23-1.42 2.93-2.46.7-1.05 1.05-2.22 1.05-3.54 0-1.08-.24-2.07-.72-2.98z" fill="#fff"/></svg>